<svg width="32" height="32" viewBox="0 0 32 32" fill="none" xmlns="http://www.w3.org/2000/svg">
<path d="M15.9999 0C24.6117 0 31.5922 6.98142 31.5922 15.5923C31.5922 24.2041 24.6117 31.1845 15.9999 31.1845C7.38806 31.1845 0.407715 24.204 0.407715 15.5923C0.407715 6.98142 7.38817 0 15.9999 0Z" fill="#161749"/>
<path d="M25.7477 10.5047C25.0665 10.7989 24.3336 10.9968 23.5648 11.0865C24.3503 10.6294 24.9525 9.90726 25.2361 9.0449C24.5013 9.4688 23.6886 9.77581 22.8222 9.94044C22.1293 9.2242 21.1421 8.77686 20.0488 8.77686C17.9516 8.77686 16.2502 10.4268 16.2502 12.4634C16.2502 12.7529 16.2833 13.0345 16.3485 13.3045C13.1911 13.1505 10.3904 11.6819 8.51738 9.45124C8.18993 9.996 8.00281 10.6284 8.00281 11.3047C8.00281 12.5833 8.67324 13.7137 9.69264 14.3735C9.06899 14.354 8.4842 14.1893 7.9707 13.9116V13.9584C7.9707 15.7456 9.2804 17.2357 11.0189 17.5748C10.7003 17.6587 10.365 17.7045 10.0181 17.7045C9.77346 17.7045 9.53571 17.6821 9.30374 17.6382C9.78705 19.1039 11.1904 20.17 12.8539 20.1993C11.553 21.1893 9.91476 21.778 8.13437 21.778C7.82736 21.778 7.52528 21.7604 7.22705 21.7264C8.91002 22.773 10.9059 23.384 13.0527 23.384C20.0419 23.384 23.864 17.763 23.864 12.8904L23.8533 12.4129C24.5938 11.8943 25.238 11.2453 25.7477 10.5047Z" fill="white"/>
</svg>
