<svg width="211" height="58" viewBox="0 0 211 58" fill="none" xmlns="http://www.w3.org/2000/svg">
<path d="M10.6618 42.6631L25.6932 14.9586L27.681 16.1062L10.6618 42.6631Z" fill="#1B495C"/>
<path d="M52.3543 31.7971L24.6499 16.7657L25.7975 14.7778L52.3543 31.7971Z" fill="#1B495C"/>
<circle cx="11.3908" cy="24.2901" r="3.75598" transform="rotate(-60 11.3908 24.2901)" fill="#FA4A0C"/>
<path d="M67.1324 15.3369L52.101 43.0414L50.1132 41.8938L67.1324 15.3369Z" fill="#1B495C"/>
<path d="M25.4396 26.2029L53.1441 41.2343L51.9964 43.2222L25.4396 26.2029Z" fill="#1B495C"/>
<circle cx="66.4034" cy="33.7099" r="3.75598" transform="rotate(120 66.4034 33.7099)" fill="#FA4A0C"/>
<path d="M84.8047 33.793C84.8438 33.1602 84.9727 32.6797 85.1914 32.3516C85.418 32.0156 85.8125 31.8477 86.375 31.8477C86.7266 31.8477 87.0273 31.9492 87.2773 32.1523C87.5273 32.3477 87.6523 32.6211 87.6523 32.9727C87.6523 33.1758 87.6328 33.3789 87.5938 33.582C87.5547 33.7852 87.543 33.9961 87.5586 34.2148C87.5898 34.4805 87.707 34.7227 87.9102 34.9414C88.1133 35.1602 88.3711 35.3516 88.6836 35.5156C88.9961 35.6719 89.3516 35.7969 89.75 35.8906C90.1484 35.9766 90.5547 36.0195 90.9688 36.0195C91.3906 36.0195 91.8086 35.9844 92.2227 35.9141C92.6445 35.8359 93.0234 35.6953 93.3594 35.4922C93.7031 35.2891 93.9805 35.0117 94.1914 34.6602C94.4023 34.3086 94.5078 33.8516 94.5078 33.2891C94.5078 32.9219 94.418 32.5781 94.2383 32.2578C94.0586 31.9297 93.8281 31.6328 93.5469 31.3672C93.2656 31.0938 92.9531 30.8477 92.6094 30.6289C92.2734 30.4102 91.9492 30.2188 91.6367 30.0547C91.1914 29.8281 90.7344 29.6094 90.2656 29.3984C89.8047 29.1797 89.3516 28.9531 88.9062 28.7188C88.4688 28.4766 88.0508 28.2148 87.6523 27.9336C87.2617 27.6445 86.918 27.3086 86.6211 26.9258C86.3242 26.543 86.0898 26.1016 85.918 25.6016C85.7461 25.0938 85.6602 24.5078 85.6602 23.8438C85.6602 23.1016 85.8164 22.4609 86.1289 21.9219C86.4492 21.3828 86.8672 20.9375 87.3828 20.5859C87.8984 20.2344 88.4883 19.9766 89.1523 19.8125C89.8242 19.6406 90.5117 19.5547 91.2148 19.5547C91.8398 19.5547 92.4453 19.6094 93.0312 19.7188C93.6172 19.8281 94.1406 20.0078 94.6016 20.2578C95.0625 20.5 95.4453 20.8281 95.75 21.2422C96.0547 21.6484 96.2383 22.1484 96.3008 22.7422C96.3164 22.9609 96.2891 23.1562 96.2188 23.3281C96.1484 23.4922 96.0508 23.6328 95.9258 23.75C95.8008 23.8594 95.6562 23.9453 95.4922 24.0078C95.3359 24.0625 95.1758 24.0898 95.0117 24.0898C94.7617 24.0898 94.5508 24.0508 94.3789 23.9727C94.207 23.8945 94.0664 23.7969 93.957 23.6797C93.8477 23.5625 93.7656 23.4297 93.7109 23.2812C93.6562 23.1328 93.6211 22.9883 93.6055 22.8477C93.4883 22.6602 93.3359 22.5078 93.1484 22.3906C92.9609 22.2656 92.75 22.168 92.5156 22.0977C92.2891 22.0195 92.0508 21.9688 91.8008 21.9453C91.5508 21.9141 91.3086 21.8984 91.0742 21.8984C90.7461 21.8984 90.418 21.9336 90.0898 22.0039C89.7695 22.0742 89.4766 22.1875 89.2109 22.3438C88.9453 22.5 88.7305 22.6992 88.5664 22.9414C88.4023 23.1836 88.3203 23.4805 88.3203 23.832C88.3203 24.2461 88.418 24.6133 88.6133 24.9336C88.8086 25.2539 89.0547 25.5391 89.3516 25.7891C89.6484 26.0391 89.9766 26.2656 90.3359 26.4688C90.7031 26.6719 91.0586 26.8594 91.4023 27.0312C91.8164 27.2422 92.2461 27.4688 92.6914 27.7109C93.1367 27.9453 93.5703 28.2031 93.9922 28.4844C94.4219 28.7578 94.8281 29.0586 95.2109 29.3867C95.5938 29.7148 95.9297 30.082 96.2188 30.4883C96.5078 30.8867 96.7344 31.3242 96.8984 31.8008C97.0703 32.2773 97.1562 32.8047 97.1562 33.3828C97.1562 34 97.0703 34.5508 96.8984 35.0352C96.7266 35.5195 96.4922 35.9453 96.1953 36.3125C95.8984 36.6797 95.5508 36.9922 95.1523 37.25C94.7539 37.5078 94.3242 37.7188 93.8633 37.8828C93.4023 38.0469 92.9219 38.1641 92.4219 38.2344C91.9297 38.3125 91.4375 38.3516 90.9453 38.3516C90.5312 38.3516 90.0859 38.3164 89.6094 38.2461C89.1406 38.1758 88.6758 38.0664 88.2148 37.918C87.7539 37.7617 87.3125 37.5664 86.8906 37.332C86.4766 37.0898 86.1094 36.8008 85.7891 36.4648C85.4766 36.1211 85.2305 35.7305 85.0508 35.293C84.8711 34.8477 84.7891 34.3477 84.8047 33.793ZM101.27 37.1562C101.27 37.0156 101.273 36.8711 101.281 36.7227C101.297 36.5742 101.312 36.4258 101.328 36.2773C101.352 36.0742 101.375 35.8477 101.398 35.5977C101.422 35.3477 101.434 35.0703 101.434 34.7656C101.434 34.3047 101.43 33.7109 101.422 32.9844C101.422 32.2578 101.418 31.4531 101.41 30.5703C101.402 29.6797 101.395 28.7461 101.387 27.7695C101.379 26.7852 101.367 25.8086 101.352 24.8398C101.344 23.8633 101.332 22.9258 101.316 22.0273C101.309 21.1289 101.301 20.3203 101.293 19.6016C101.176 19.5859 101.051 19.5938 100.918 19.625C100.785 19.6484 100.629 19.6602 100.449 19.6602C100.309 19.6602 100.164 19.6367 100.016 19.5898C99.875 19.543 99.7422 19.4727 99.6172 19.3789C99.5 19.2773 99.4023 19.1445 99.3242 18.9805C99.2539 18.8164 99.2188 18.6172 99.2188 18.3828C99.2188 17.9688 99.3281 17.6562 99.5469 17.4453C99.7656 17.2266 100.027 17.1172 100.332 17.1172C100.457 17.1172 100.578 17.1328 100.695 17.1641C100.812 17.1953 100.938 17.2109 101.07 17.2109C101.227 17.2109 101.387 17.207 101.551 17.1992C101.715 17.1914 101.875 17.1797 102.031 17.1641C102.203 17.1484 102.371 17.1367 102.535 17.1289C102.707 17.1211 102.855 17.1172 102.98 17.1172C103.309 17.1172 103.574 17.2266 103.777 17.4453C103.988 17.6562 104.094 17.9492 104.094 18.3242C104.094 19.332 104.082 20.3594 104.059 21.4062C104.043 22.4453 104.027 23.5664 104.012 24.7695L103.988 25.3672C104.262 25.125 104.562 24.8945 104.891 24.6758C105.219 24.457 105.566 24.2656 105.934 24.1016C106.309 23.9375 106.695 23.8086 107.094 23.7148C107.492 23.6133 107.898 23.5625 108.312 23.5625C109.297 23.5625 110.172 23.707 110.938 23.9961C111.711 24.2852 112.363 24.7266 112.895 25.3203C113.426 25.9141 113.828 26.6602 114.102 27.5586C114.383 28.457 114.523 29.5195 114.523 30.7461C114.523 31.1055 114.496 31.4805 114.441 31.8711C114.395 32.2617 114.324 32.6523 114.23 33.043C114.137 33.4336 114.023 33.8203 113.891 34.2031C113.758 34.5781 113.609 34.9297 113.445 35.2578C113.617 35.1953 113.789 35.1406 113.961 35.0938C114.133 35.0391 114.32 35.0117 114.523 35.0117C114.781 35.0117 114.992 35.0625 115.156 35.1641C115.32 35.2578 115.445 35.3711 115.531 35.5039C115.625 35.6367 115.688 35.7734 115.719 35.9141C115.75 36.0547 115.766 36.1641 115.766 36.2422C115.766 36.5391 115.676 36.793 115.496 37.0039C115.324 37.2148 115.102 37.3672 114.828 37.4609C114.602 37.5469 114.316 37.6406 113.973 37.7422C113.629 37.8438 113.281 37.9375 112.93 38.0234C112.586 38.1094 112.262 38.1836 111.957 38.2461C111.652 38.3086 111.422 38.3398 111.266 38.3398C110.758 38.3398 110.395 38.2188 110.176 37.9766C109.965 37.7266 109.859 37.4062 109.859 37.0156C109.859 36.8047 109.918 36.5742 110.035 36.3242C110.152 36.0742 110.293 35.8438 110.457 35.6328C110.66 35.3438 110.848 35.0117 111.02 34.6367C111.191 34.2539 111.34 33.8516 111.465 33.4297C111.598 33 111.699 32.5586 111.77 32.1055C111.848 31.6445 111.887 31.1914 111.887 30.7461C111.887 30.0117 111.816 29.3555 111.676 28.7773C111.543 28.1992 111.328 27.7109 111.031 27.3125C110.734 26.9141 110.348 26.6133 109.871 26.4102C109.402 26.1992 108.832 26.0938 108.16 26.0938C107.77 26.0938 107.379 26.1641 106.988 26.3047C106.598 26.4453 106.219 26.6328 105.852 26.8672C105.484 27.0938 105.137 27.3594 104.809 27.6641C104.488 27.9609 104.203 28.2656 103.953 28.5781C103.938 29.7422 103.926 30.9023 103.918 32.0586C103.918 33.207 103.926 34.3828 103.941 35.5859C103.957 35.5859 103.977 35.582 104 35.5742C104.031 35.5664 104.098 35.543 104.199 35.5039C104.27 35.4727 104.344 35.4453 104.422 35.4219C104.508 35.3984 104.602 35.3828 104.703 35.375C105.125 35.3594 105.445 35.4609 105.664 35.6797C105.891 35.8906 106.004 36.1953 106.004 36.5938C106.004 36.7344 105.977 36.875 105.922 37.0156C105.875 37.1484 105.809 37.2695 105.723 37.3789C105.637 37.4883 105.535 37.582 105.418 37.6602C105.301 37.7383 105.172 37.793 105.031 37.8242C104.875 37.8555 104.719 37.8906 104.562 37.9297C104.414 37.9609 104.262 37.9922 104.105 38.0234C103.965 38.0547 103.812 38.0898 103.648 38.1289C103.492 38.168 103.336 38.2031 103.18 38.2344C103.031 38.2656 102.895 38.2891 102.77 38.3047C102.645 38.3281 102.543 38.3398 102.465 38.3398C102.004 38.3398 101.688 38.2383 101.516 38.0352C101.352 37.832 101.27 37.5391 101.27 37.1562ZM118.438 30.9688C118.438 29.9062 118.617 28.918 118.977 28.0039C119.336 27.0898 119.828 26.2969 120.453 25.625C121.086 24.9531 121.824 24.4258 122.668 24.043C123.52 23.6602 124.438 23.4688 125.422 23.4688C125.922 23.4688 126.398 23.5273 126.852 23.6445C127.312 23.7617 127.738 23.918 128.129 24.1133C128.527 24.3008 128.883 24.5156 129.195 24.7578C129.516 25 129.789 25.25 130.016 25.5078C130.008 25.3984 130.004 25.2812 130.004 25.1562C130.004 25.0312 130.004 24.9219 130.004 24.8281C130.004 24.6328 130.031 24.4531 130.086 24.2891C130.141 24.1172 130.227 23.9688 130.344 23.8438C130.461 23.7188 130.609 23.6211 130.789 23.5508C130.969 23.4727 131.188 23.4336 131.445 23.4336C131.664 23.4336 131.859 23.4766 132.031 23.5625C132.211 23.6406 132.363 23.7422 132.488 23.8672C132.613 23.9844 132.711 24.1133 132.781 24.2539C132.852 24.3867 132.887 24.5078 132.887 24.6172C132.887 24.8828 132.871 25.1523 132.84 25.4258C132.816 25.6914 132.797 25.9609 132.781 26.2344C132.781 27.0938 132.773 27.8555 132.758 28.5195C132.75 29.1758 132.738 29.7812 132.723 30.3359C132.707 30.7109 132.695 31.1016 132.688 31.5078C132.68 31.9062 132.676 32.2734 132.676 32.6094C132.676 33.3672 132.676 33.9688 132.676 34.4141C132.676 34.8594 132.695 35.1836 132.734 35.3867C132.805 35.3711 132.906 35.3359 133.039 35.2812C133.18 35.2266 133.309 35.168 133.426 35.1055C133.535 35.0664 133.645 35.0273 133.754 34.9883C133.863 34.9492 134 34.9297 134.164 34.9297C134.352 34.9297 134.516 34.9727 134.656 35.0586C134.797 35.1367 134.914 35.2422 135.008 35.375C135.109 35.5 135.184 35.6445 135.23 35.8086C135.277 35.9648 135.301 36.1172 135.301 36.2656C135.301 36.4766 135.25 36.6914 135.148 36.9102C135.047 37.1211 134.859 37.2734 134.586 37.3672C134.352 37.4531 134.113 37.543 133.871 37.6367C133.629 37.7305 133.383 37.8164 133.133 37.8945C132.891 37.9727 132.645 38.0391 132.395 38.0938C132.152 38.1484 131.902 38.1758 131.645 38.1758C131.34 38.1758 131.09 38.1133 130.895 37.9883C130.699 37.8633 130.547 37.7031 130.438 37.5078C130.328 37.3047 130.25 37.082 130.203 36.8398C130.156 36.5977 130.129 36.3594 130.121 36.125C129.879 36.4297 129.586 36.7148 129.242 36.9805C128.898 37.2461 128.52 37.4805 128.105 37.6836C127.691 37.8867 127.246 38.0469 126.77 38.1641C126.301 38.2812 125.816 38.3398 125.316 38.3398C124.301 38.3398 123.371 38.1562 122.527 37.7891C121.684 37.4141 120.957 36.8984 120.348 36.2422C119.746 35.5781 119.277 34.7969 118.941 33.8984C118.605 33 118.438 32.0234 118.438 30.9688ZM121.133 30.9688C121.133 31.6016 121.227 32.2109 121.414 32.7969C121.609 33.3828 121.887 33.9023 122.246 34.3555C122.613 34.8008 123.062 35.1562 123.594 35.4219C124.125 35.6875 124.727 35.8203 125.398 35.8203C126.062 35.8203 126.664 35.6914 127.203 35.4336C127.742 35.1758 128.211 34.8398 128.609 34.4258C129.016 34.0117 129.348 33.5508 129.605 33.043C129.863 32.5273 130.039 32.0117 130.133 31.4961V30.4648C130.047 29.9883 129.883 29.4844 129.641 28.9531C129.406 28.4219 129.094 27.9336 128.703 27.4883C128.32 27.0352 127.859 26.6641 127.32 26.375C126.781 26.0781 126.172 25.9297 125.492 25.9297C124.852 25.9297 124.266 26.0625 123.734 26.3281C123.203 26.5859 122.742 26.9453 122.352 27.4062C121.969 27.8594 121.668 28.3906 121.449 29C121.238 29.6094 121.133 30.2656 121.133 30.9688ZM139.098 37.1328C139.098 36.9922 139.102 36.8477 139.109 36.6992C139.125 36.5508 139.141 36.4062 139.156 36.2656C139.18 36.0547 139.203 35.8242 139.227 35.5742C139.25 35.3242 139.262 35.043 139.262 34.7305C139.262 34.1211 139.258 33.5469 139.25 33.0078C139.25 32.4609 139.242 31.8984 139.227 31.3203C139.227 31.3047 139.227 31.2812 139.227 31.25C139.227 31.2109 139.223 31.1367 139.215 31.0273C139.215 30.918 139.211 30.7578 139.203 30.5469C139.203 30.3359 139.199 30.0391 139.191 29.6562C139.184 29.2734 139.172 28.7969 139.156 28.2266C139.148 27.6484 139.137 26.9453 139.121 26.1172C139.02 26.1328 138.898 26.1484 138.758 26.1641C138.625 26.1719 138.465 26.1758 138.277 26.1758C138.137 26.1758 137.992 26.1523 137.844 26.1055C137.703 26.0586 137.57 25.9883 137.445 25.8945C137.328 25.793 137.23 25.6641 137.152 25.5078C137.082 25.3438 137.047 25.1445 137.047 24.9102C137.047 24.4883 137.152 24.1719 137.363 23.9609C137.582 23.7422 137.848 23.6328 138.16 23.6328C138.285 23.6328 138.406 23.6484 138.523 23.6797C138.641 23.7109 138.766 23.7266 138.898 23.7266C139.055 23.7266 139.215 23.7227 139.379 23.7148C139.543 23.707 139.703 23.6953 139.859 23.6797C140.031 23.6641 140.199 23.6523 140.363 23.6445C140.535 23.6367 140.688 23.6328 140.82 23.6328C141.141 23.6328 141.406 23.7383 141.617 23.9492C141.828 24.1602 141.934 24.457 141.934 24.8398C141.934 24.9336 141.93 25.043 141.922 25.168C141.922 25.293 141.914 25.4141 141.898 25.5312C142.164 25.2734 142.465 25.0273 142.801 24.793C143.137 24.5586 143.5 24.3516 143.891 24.1719C144.289 23.9844 144.715 23.8359 145.168 23.7266C145.621 23.6172 146.102 23.5625 146.609 23.5625C147.602 23.5625 148.469 23.7266 149.211 24.0547C149.961 24.375 150.586 24.8438 151.086 25.4609C151.594 26.0703 151.973 26.8203 152.223 27.7109C152.48 28.6016 152.609 29.6133 152.609 30.7461C152.609 31.0898 152.586 31.4492 152.539 31.8242C152.492 32.1992 152.426 32.5742 152.34 32.9492C152.262 33.3242 152.164 33.6992 152.047 34.0742C151.938 34.4414 151.812 34.7891 151.672 35.1172C151.852 35.0625 152.023 35.0156 152.188 34.9766C152.352 34.9375 152.488 34.9102 152.598 34.8945C153.473 34.8086 153.91 35.207 153.91 36.0898C153.91 36.1992 153.898 36.3203 153.875 36.4531C153.852 36.5781 153.805 36.7031 153.734 36.8281C153.664 36.9453 153.566 37.0586 153.441 37.168C153.316 37.2695 153.156 37.3555 152.961 37.4258L151.695 37.7188C151.305 37.8359 150.988 37.9336 150.746 38.0117C150.512 38.0977 150.312 38.1641 150.148 38.2109C149.992 38.2656 149.859 38.3008 149.75 38.3164C149.641 38.3398 149.52 38.3477 149.387 38.3398C149.199 38.3398 149.035 38.293 148.895 38.1992C148.754 38.1133 148.637 38.0039 148.543 37.8711C148.449 37.7305 148.379 37.5781 148.332 37.4141C148.285 37.25 148.262 37.0898 148.262 36.9336C148.262 36.6836 148.297 36.4297 148.367 36.1719C148.438 35.9141 148.562 35.6797 148.742 35.4688C148.961 35.1875 149.145 34.8711 149.293 34.5195C149.449 34.168 149.574 33.7891 149.668 33.3828C149.762 32.9766 149.828 32.5508 149.867 32.1055C149.914 31.6602 149.938 31.207 149.938 30.7461C149.938 30.2148 149.879 29.6758 149.762 29.1289C149.652 28.5742 149.461 28.0742 149.188 27.6289C148.922 27.1758 148.566 26.8086 148.121 26.5273C147.684 26.2383 147.133 26.0938 146.469 26.0938C146.008 26.0938 145.555 26.168 145.109 26.3164C144.672 26.457 144.25 26.6484 143.844 26.8906C143.445 27.125 143.07 27.3945 142.719 27.6992C142.367 28.0039 142.059 28.3164 141.793 28.6367C141.785 28.9883 141.777 29.3438 141.77 29.7031C141.77 30.0547 141.77 30.4102 141.77 30.7695C141.754 31.3789 141.742 31.9844 141.734 32.5859C141.727 33.1875 141.723 33.7969 141.723 34.4141C141.723 34.5938 141.723 34.7773 141.723 34.9648C141.723 35.1445 141.73 35.3359 141.746 35.5391L142.062 35.4453C142.148 35.4219 142.23 35.4023 142.309 35.3867C142.395 35.3633 142.469 35.3516 142.531 35.3516C142.953 35.3516 143.273 35.457 143.492 35.668C143.711 35.8711 143.82 36.1719 143.82 36.5703C143.82 36.8672 143.762 37.1055 143.645 37.2852C143.527 37.457 143.379 37.5938 143.199 37.6953C143.02 37.7891 142.82 37.8555 142.602 37.8945C142.391 37.9336 142.184 37.9648 141.98 37.9883C141.871 38.0039 141.766 38.0156 141.664 38.0234C141.562 38.0391 141.477 38.0586 141.406 38.082C141.156 38.1523 140.941 38.2109 140.762 38.2578C140.582 38.3125 140.426 38.3398 140.293 38.3398C139.832 38.3398 139.516 38.2344 139.344 38.0234C139.18 37.8125 139.098 37.5156 139.098 37.1328ZM157.625 40.9883C157.625 40.8086 157.652 40.6289 157.707 40.4492C157.77 40.2695 157.852 40.1094 157.953 39.9688C158.062 39.8281 158.191 39.7109 158.34 39.6172C158.496 39.5312 158.664 39.4883 158.844 39.4883C158.977 39.4883 159.137 39.5156 159.324 39.5703C159.52 39.625 159.68 39.7031 159.805 39.8047C160 39.9844 160.207 40.1641 160.426 40.3438C160.652 40.5234 160.906 40.6836 161.188 40.8242C161.469 40.9648 161.785 41.0781 162.137 41.1641C162.496 41.2578 162.914 41.3047 163.391 41.3047C163.859 41.3047 164.344 41.2188 164.844 41.0469C165.352 40.875 165.812 40.6211 166.227 40.2852C166.648 39.9492 166.992 39.5312 167.258 39.0312C167.531 38.5312 167.668 37.9531 167.668 37.2969C167.668 37.1875 167.664 37.0703 167.656 36.9453C167.648 36.8125 167.645 36.6836 167.645 36.5586C167.441 36.8086 167.203 37.043 166.93 37.2617C166.656 37.4805 166.336 37.6719 165.969 37.8359C165.602 37.9922 165.176 38.1133 164.691 38.1992C164.215 38.293 163.668 38.3398 163.051 38.3398C162.043 38.3398 161.117 38.1562 160.273 37.7891C159.43 37.4141 158.703 36.8984 158.094 36.2422C157.484 35.5781 157.008 34.7969 156.664 33.8984C156.32 33 156.145 32.0234 156.137 30.9688C156.121 29.8438 156.289 28.8281 156.641 27.9219C157 27.0078 157.496 26.2305 158.129 25.5898C158.762 24.9414 159.508 24.4414 160.367 24.0898C161.227 23.7383 162.16 23.5625 163.168 23.5625C164.238 23.5625 165.164 23.7188 165.945 24.0312C166.727 24.3438 167.391 24.8008 167.938 25.4023C167.977 25.2773 168.027 25.1562 168.09 25.0391C168.152 24.9141 168.23 24.8047 168.324 24.7109C168.426 24.6172 168.539 24.543 168.664 24.4883C168.797 24.4258 168.953 24.3945 169.133 24.3945C169.398 24.3945 169.613 24.4297 169.777 24.5C169.949 24.5625 170.082 24.6523 170.176 24.7695C170.27 24.8867 170.332 25.0273 170.363 25.1914C170.402 25.3477 170.422 25.5195 170.422 25.707C170.422 25.8789 170.406 26.0508 170.375 26.2227C170.344 26.3867 170.328 26.5664 170.328 26.7617C170.328 27.6445 170.324 28.4883 170.316 29.293C170.316 30.0898 170.309 30.8828 170.293 31.6719C170.277 32.4531 170.266 33.2812 170.258 34.1562C170.25 35.0312 170.246 35.9102 170.246 36.793C170.246 37.8164 170.133 38.6953 169.906 39.4297C169.68 40.1719 169.379 40.8008 169.004 41.3164C168.637 41.8398 168.211 42.2617 167.727 42.582C167.25 42.9023 166.754 43.1523 166.238 43.332C165.73 43.5117 165.223 43.6328 164.715 43.6953C164.207 43.7578 163.742 43.7891 163.32 43.7891C162.93 43.7891 162.52 43.7539 162.09 43.6836C161.66 43.6211 161.234 43.5273 160.812 43.4023C160.391 43.2773 159.984 43.1289 159.594 42.957C159.211 42.7852 158.871 42.5938 158.574 42.3828C158.285 42.1797 158.055 41.957 157.883 41.7148C157.711 41.4805 157.625 41.2383 157.625 40.9883ZM158.75 30.9688C158.75 31.6641 158.852 32.3086 159.055 32.9023C159.266 33.4961 159.559 34.0117 159.934 34.4492C160.316 34.8789 160.777 35.2148 161.316 35.457C161.855 35.6992 162.461 35.8203 163.133 35.8203C163.891 35.8203 164.559 35.6992 165.137 35.457C165.715 35.2148 166.199 34.8789 166.59 34.4492C166.98 34.0117 167.277 33.4961 167.48 32.9023C167.684 32.3086 167.785 31.6641 167.785 30.9688C167.785 30.2891 167.699 29.6445 167.527 29.0352C167.355 28.418 167.086 27.8828 166.719 27.4297C166.359 26.9688 165.895 26.6055 165.324 26.3398C164.762 26.0664 164.09 25.9297 163.309 25.9297C162.613 25.9297 161.984 26.0625 161.422 26.3281C160.867 26.5859 160.391 26.9414 159.992 27.3945C159.594 27.8477 159.285 28.3828 159.066 29C158.855 29.6094 158.75 30.2656 158.75 30.9688ZM176.645 32.7148C176.793 33.3008 177.012 33.793 177.301 34.1914C177.598 34.582 177.93 34.8984 178.297 35.1406C178.664 35.3828 179.051 35.5586 179.457 35.668C179.871 35.7695 180.273 35.8203 180.664 35.8203C181.273 35.8203 181.816 35.7695 182.293 35.668C182.77 35.5586 183.176 35.4297 183.512 35.2812C183.855 35.125 184.133 34.9648 184.344 34.8008C184.555 34.6367 184.703 34.4922 184.789 34.3672C184.867 34.25 184.953 34.1406 185.047 34.0391C185.148 33.9297 185.254 33.8359 185.363 33.7578C185.48 33.6719 185.594 33.6055 185.703 33.5586C185.82 33.5117 185.93 33.4883 186.031 33.4883C186.422 33.4883 186.723 33.6055 186.934 33.8398C187.152 34.0664 187.262 34.375 187.262 34.7656C187.262 34.9141 187.207 35.1016 187.098 35.3281C186.988 35.5547 186.785 35.8047 186.488 36.0781C186.16 36.3828 185.793 36.6719 185.387 36.9453C184.988 37.2188 184.547 37.4609 184.062 37.6719C183.578 37.875 183.051 38.0352 182.48 38.1523C181.918 38.2773 181.309 38.3398 180.652 38.3398C179.879 38.3398 179.172 38.2344 178.531 38.0234C177.891 37.8203 177.316 37.543 176.809 37.1914C176.301 36.832 175.859 36.418 175.484 35.9492C175.109 35.4805 174.797 34.9805 174.547 34.4492C174.297 33.918 174.109 33.3711 173.984 32.8086C173.859 32.2461 173.797 31.6992 173.797 31.168C173.797 30.0117 173.984 28.9688 174.359 28.0391C174.734 27.1016 175.25 26.3008 175.906 25.6367C176.562 24.9727 177.34 24.4609 178.238 24.1016C179.137 23.7422 180.109 23.5625 181.156 23.5625C181.906 23.5625 182.609 23.6758 183.266 23.9023C183.922 24.1211 184.504 24.4336 185.012 24.8398C185.527 25.2383 185.957 25.7188 186.301 26.2812C186.652 26.8359 186.898 27.4492 187.039 28.1211C187.195 28.2539 187.309 28.4297 187.379 28.6484C187.457 28.8594 187.496 29.0703 187.496 29.2812C187.496 29.6328 187.375 29.9219 187.133 30.1484C186.898 30.3672 186.602 30.5195 186.242 30.6055C185.453 30.8086 184.664 30.9961 183.875 31.168C183.086 31.3398 182.293 31.5078 181.496 31.6719C180.699 31.8359 179.895 32.0039 179.082 32.1758C178.277 32.3477 177.465 32.5273 176.645 32.7148ZM176.445 30.5469C177.773 30.2344 179.117 29.9414 180.477 29.668C181.836 29.3945 183.219 29.0898 184.625 28.7539C184.492 28.3945 184.312 28.0547 184.086 27.7344C183.859 27.4062 183.594 27.1211 183.289 26.8789C182.984 26.6367 182.645 26.4453 182.27 26.3047C181.902 26.1641 181.504 26.0938 181.074 26.0938C180.41 26.0938 179.805 26.2031 179.258 26.4219C178.719 26.6328 178.25 26.9336 177.852 27.3242C177.453 27.707 177.133 28.1758 176.891 28.7305C176.648 29.2773 176.5 29.8828 176.445 30.5469Z" fill="#0F3E52"/>
<path d="M194.539 21.8516C194.352 21.9375 194.156 21.9805 193.953 21.9805C193.75 21.9727 193.562 21.9297 193.391 21.8516C193.227 21.7656 193.082 21.6445 192.957 21.4883C192.832 21.332 192.754 21.1445 192.723 20.9258C192.699 20.7773 192.703 20.6094 192.734 20.4219C192.773 20.2266 192.82 20.0312 192.875 19.8359C192.938 19.6328 192.992 19.4375 193.039 19.25C193.094 19.0547 193.129 18.8789 193.145 18.7227C193.168 18.3711 193.273 18.0781 193.461 17.8438C193.648 17.6094 193.93 17.4648 194.305 17.4102C194.578 17.3633 194.836 17.3789 195.078 17.457C195.32 17.5352 195.5 17.707 195.617 17.9727C195.656 18.0586 195.688 18.1602 195.711 18.2773C195.742 18.3867 195.766 18.4844 195.781 18.5703C195.789 18.6484 195.785 18.7461 195.77 18.8633C195.762 18.9805 195.742 19.1055 195.711 19.2383C195.68 19.3633 195.641 19.4922 195.594 19.625C195.555 19.75 195.516 19.8594 195.477 19.9531C195.414 20.0859 195.371 20.2305 195.348 20.3867C195.332 20.5352 195.312 20.6719 195.289 20.7969C195.266 20.9219 195.242 21.0352 195.219 21.1367C195.195 21.2383 195.156 21.332 195.102 21.418C195.055 21.5039 194.984 21.582 194.891 21.6523C194.805 21.7227 194.688 21.7891 194.539 21.8516ZM192.535 37.1211C192.535 36.9258 192.543 36.7617 192.559 36.6289C192.582 36.4961 192.602 36.3516 192.617 36.1953C192.641 36.0312 192.66 35.8398 192.676 35.6211C192.699 35.4023 192.711 35.1055 192.711 34.7305C192.711 33.332 192.707 31.9453 192.699 30.5703C192.691 29.1875 192.672 27.7266 192.641 26.1875C192.523 26.1953 192.391 26.2031 192.242 26.2109C192.094 26.2188 191.938 26.2266 191.773 26.2344C191.617 26.2344 191.465 26.2383 191.316 26.2461C191.168 26.2461 191.035 26.2461 190.918 26.2461C190.777 26.2461 190.633 26.2266 190.484 26.1875C190.344 26.1406 190.215 26.0664 190.098 25.9648C189.98 25.8633 189.883 25.7344 189.805 25.5781C189.727 25.4141 189.688 25.2148 189.688 24.9805C189.688 24.5664 189.797 24.2539 190.016 24.043C190.242 23.8242 190.508 23.7148 190.812 23.7148C191.109 23.7148 191.402 23.7305 191.691 23.7617C191.988 23.7852 192.277 23.7969 192.559 23.7969C192.848 23.7969 193.137 23.7852 193.426 23.7617C193.715 23.7305 193.988 23.7148 194.246 23.7148C194.645 23.7148 194.93 23.8203 195.102 24.0312C195.273 24.2422 195.359 24.5352 195.359 24.9102C195.359 25.2305 195.332 25.5469 195.277 25.8594C195.223 26.1641 195.195 26.4922 195.195 26.8438C195.195 27.5469 195.191 28.2539 195.184 28.9648C195.176 29.6758 195.168 30.3984 195.16 31.1328C195.16 31.8672 195.156 32.6172 195.148 33.3828C195.148 34.1484 195.156 34.9375 195.172 35.75C195.297 35.7422 195.41 35.7227 195.512 35.6914C195.613 35.6602 195.711 35.6289 195.805 35.5977C195.898 35.5586 195.996 35.5273 196.098 35.5039C196.207 35.4727 196.328 35.457 196.461 35.457C196.664 35.457 196.828 35.4805 196.953 35.5273C197.086 35.5742 197.191 35.6406 197.27 35.7266C197.348 35.8047 197.406 35.9062 197.445 36.0312C197.484 36.1484 197.52 36.2773 197.551 36.418C197.605 36.7852 197.516 37.0781 197.281 37.2969C197.047 37.5156 196.727 37.6875 196.32 37.8125C196.086 37.875 195.844 37.9375 195.594 38C195.352 38.0625 195.121 38.1172 194.902 38.1641C194.684 38.2188 194.484 38.2617 194.305 38.293C194.125 38.3242 193.984 38.3398 193.883 38.3398C193.422 38.3398 193.082 38.2305 192.863 38.0117C192.645 37.8008 192.535 37.5039 192.535 37.1211ZM202.004 34.6016L201.934 26.3398L200.516 26.3516C200.336 26.3516 200.18 26.3164 200.047 26.2461C199.914 26.168 199.801 26.0664 199.707 25.9414C199.621 25.8086 199.555 25.6602 199.508 25.4961C199.461 25.332 199.438 25.1602 199.438 24.9805C199.438 24.6758 199.473 24.4453 199.543 24.2891C199.621 24.125 199.73 24.0078 199.871 23.9375C200.012 23.8594 200.184 23.8164 200.387 23.8086C200.59 23.793 200.824 23.7852 201.09 23.7852H201.922V23.3516C201.922 23.0625 201.918 22.8281 201.91 22.6484C201.91 22.4688 201.91 22.3477 201.91 22.2852C201.91 22.0586 201.887 21.832 201.84 21.6055C201.801 21.3789 201.781 21.1484 201.781 20.9141C201.781 20.7188 201.805 20.5469 201.852 20.3984C201.898 20.25 201.977 20.125 202.086 20.0234C202.203 19.9141 202.355 19.832 202.543 19.7773C202.73 19.7227 202.961 19.6953 203.234 19.6953C203.422 19.6953 203.598 19.7109 203.762 19.7422C203.934 19.7734 204.082 19.8359 204.207 19.9297C204.34 20.0156 204.445 20.1367 204.523 20.293C204.602 20.4492 204.641 20.6523 204.641 20.9023C204.641 21.2383 204.609 21.5703 204.547 21.8984C204.492 22.2266 204.469 22.5664 204.477 22.918V23.7734C205.086 23.7578 205.559 23.7461 205.895 23.7383C206.238 23.7305 206.516 23.7227 206.727 23.7148C206.758 23.7148 206.785 23.7148 206.809 23.7148C206.84 23.707 206.867 23.7031 206.891 23.7031C206.984 23.6953 207.09 23.6914 207.207 23.6914C207.324 23.6914 207.418 23.6914 207.488 23.6914C207.637 23.6914 207.781 23.7148 207.922 23.7617C208.062 23.8086 208.184 23.8867 208.285 23.9961C208.395 24.1055 208.48 24.2461 208.543 24.418C208.605 24.5898 208.637 24.7969 208.637 25.0391C208.637 25.2266 208.621 25.4023 208.59 25.5664C208.559 25.7305 208.5 25.875 208.414 26C208.328 26.125 208.203 26.2266 208.039 26.3047C207.875 26.375 207.664 26.4102 207.406 26.4102C207.164 26.4102 206.918 26.3984 206.668 26.375C206.426 26.3438 206.176 26.3242 205.918 26.3164L204.5 26.3281L204.582 35.5742C204.902 35.5195 205.184 35.4688 205.426 35.4219C205.668 35.375 205.895 35.3281 206.105 35.2812C206.316 35.2344 206.523 35.1797 206.727 35.1172C206.93 35.0547 207.152 34.9766 207.395 34.8828C207.527 34.8125 207.684 34.7422 207.863 34.6719C208.043 34.5938 208.23 34.5547 208.426 34.5547C208.809 34.5547 209.109 34.6875 209.328 34.9531C209.547 35.2109 209.656 35.5508 209.656 35.9727C209.656 36.082 209.629 36.2031 209.574 36.3359C209.527 36.4688 209.453 36.6016 209.352 36.7344C209.25 36.8594 209.117 36.9766 208.953 37.0859C208.797 37.1875 208.609 37.2617 208.391 37.3086C208.156 37.3555 207.887 37.4141 207.582 37.4844C207.277 37.5547 206.957 37.6289 206.621 37.707C206.285 37.7852 205.949 37.8633 205.613 37.9414C205.277 38.0195 204.961 38.0859 204.664 38.1406C204.367 38.2031 204.105 38.2539 203.879 38.293C203.652 38.332 203.48 38.3477 203.363 38.3398C203.223 38.3398 203.066 38.3203 202.895 38.2812C202.73 38.25 202.578 38.1875 202.438 38.0938C202.297 38.0078 202.18 37.8867 202.086 37.7305C202 37.5664 201.957 37.3594 201.957 37.1094L202.004 34.6016Z" fill="#F10000"/>
</svg>
